<mxfile host="app.diagrams.net" modified="2022-06-18T13:17:00.775Z" agent="5.0 (Macintosh; Intel Mac OS X 10_15_7) AppleWebKit/537.36 (KHTML, like Gecko) Chrome/102.0.0.0 Safari/537.36" etag="vS3UyU-WpqXK6I5rNiN8" version="20.0.1" type="github">
  <diagram id="TRkx5v75kSCxQt9J-QwU" name="Page-1">
    <mxGraphModel dx="2276" dy="1894" grid="1" gridSize="10" guides="1" tooltips="1" connect="1" arrows="1" fold="1" page="1" pageScale="1" pageWidth="850" pageHeight="1100" math="0" shadow="0">
      <root>
        <mxCell id="0" />
        <mxCell id="1" parent="0" />
        <mxCell id="sUDlvrS8sk9wRTxF1nw5-7" value="&lt;span style=&quot;text-align: left;&quot;&gt;Language-Lvel&lt;/span&gt;" style="rounded=1;whiteSpace=wrap;html=1;fontSize=18;fillColor=#fff2cc;strokeColor=#d6b656;" vertex="1" parent="1">
          <mxGeometry x="120" y="420" width="190" height="70" as="geometry" />
        </mxCell>
        <mxCell id="sUDlvrS8sk9wRTxF1nw5-8" value="&lt;span style=&quot;text-align: left;&quot;&gt;Bytecode-Lvel&lt;/span&gt;" style="rounded=1;whiteSpace=wrap;html=1;fontSize=18;fillColor=#cce5ff;strokeColor=#36393d;" vertex="1" parent="1">
          <mxGeometry x="120" y="250" width="190" height="70" as="geometry" />
        </mxCell>
        <mxCell id="sUDlvrS8sk9wRTxF1nw5-9" value="&lt;span style=&quot;text-align: left;&quot;&gt;Consensys-Lvel&lt;/span&gt;" style="rounded=1;whiteSpace=wrap;html=1;fontSize=18;fillColor=#ffcccc;strokeColor=#36393d;" vertex="1" parent="1">
          <mxGeometry x="130" y="60" width="190" height="70" as="geometry" />
        </mxCell>
        <mxCell id="sUDlvrS8sk9wRTxF1nw5-10" value="&lt;span style=&quot;color: rgb(26, 26, 27); font-family: &amp;quot;Noto Sans&amp;quot;, Arial, sans-serif; font-size: 14px; background-color: rgb(248, 206, 204);&quot;&gt;A consensus-level zkEVM targets full equivalence with the EVM as used by Ethereum L1 consensus. That is, it is a zkEVM that produces SNARKs proving the validity of Ethereum L1 state roots. Deploying a consensus-level zkEVM is part of the &quot;ZK-SNARK everything&quot; roadmap of Ethereum&lt;/span&gt;" style="rounded=0;whiteSpace=wrap;html=1;fontSize=18;align=left;spacing=12;fillColor=#F8CECC;strokeColor=#b85450;" vertex="1" parent="1">
          <mxGeometry x="390" y="30" width="670" height="130" as="geometry" />
        </mxCell>
        <mxCell id="sUDlvrS8sk9wRTxF1nw5-11" value="&lt;span style=&quot;background-color: rgb(218, 232, 252);&quot;&gt;&lt;span style=&quot;color: rgb(26, 26, 27); font-family: &amp;quot;Noto Sans&amp;quot;, Arial, sans-serif; font-size: 14px;&quot;&gt;A bytecode-level zkEVM aims to interpret EVM bytecode. &lt;/span&gt;&lt;span style=&quot;color: rgb(26, 26, 27); font-family: &amp;quot;Noto Sans&amp;quot;, Arial, sans-serif; font-size: 14px;&quot;&gt;Such a zkEVM may produce different state roots than the EVM, e.g. if the EVM&#39;s SNARK-unfriendly Patricia-Merkle trie is replaced with a SNARK-friendly alternative.&lt;/span&gt;&lt;span style=&quot;color: rgb(26, 26, 27); font-family: &amp;quot;Noto Sans&amp;quot;, Arial, sans-serif; font-size: 14px;&quot;&gt;This is the approach taken by Scroll, Hermez, and Consensys&lt;/span&gt;&lt;span style=&quot;color: rgb(26, 26, 27); font-family: &amp;quot;Noto Sans&amp;quot;, Arial, sans-serif; font-size: 14px;&quot;&gt;.&amp;nbsp;&lt;/span&gt;&lt;/span&gt;" style="rounded=0;whiteSpace=wrap;html=1;fontSize=18;align=left;spacing=12;fillColor=#DAE8FC;strokeColor=#6c8ebf;" vertex="1" parent="1">
          <mxGeometry x="390" y="220" width="670" height="130" as="geometry" />
        </mxCell>
        <mxCell id="sUDlvrS8sk9wRTxF1nw5-12" value="&lt;span style=&quot;color: rgb(26, 26, 27); font-family: &amp;quot;Noto Sans&amp;quot;, Arial, sans-serif; font-size: 14px; background-color: rgb(255, 242, 204);&quot;&gt;A language-level zkEVM aims to transpile an EVM-friendly language (e.g. Solidity or Yul) down to a SNARK-friendly VM that may be completely different to the EVM. This is the approach taken by MatterLabs and StarkWare.&lt;/span&gt;" style="rounded=0;whiteSpace=wrap;html=1;fontSize=18;align=left;spacing=12;fillColor=#FFF2CC;strokeColor=#d6b656;" vertex="1" parent="1">
          <mxGeometry x="390" y="395" width="670" height="120" as="geometry" />
        </mxCell>
        <mxCell id="sUDlvrS8sk9wRTxF1nw5-14" value="" style="endArrow=classic;html=1;rounded=0;fontSize=18;strokeWidth=3;" edge="1" parent="1">
          <mxGeometry width="50" height="50" relative="1" as="geometry">
            <mxPoint x="80" y="560" as="sourcePoint" />
            <mxPoint x="80" y="-40" as="targetPoint" />
          </mxGeometry>
        </mxCell>
        <mxCell id="sUDlvrS8sk9wRTxF1nw5-16" value="" style="endArrow=classic;html=1;rounded=0;fontSize=18;strokeWidth=3;" edge="1" parent="1">
          <mxGeometry width="50" height="50" relative="1" as="geometry">
            <mxPoint x="1160" y="560" as="sourcePoint" />
            <mxPoint x="1160" y="-40" as="targetPoint" />
          </mxGeometry>
        </mxCell>
        <mxCell id="sUDlvrS8sk9wRTxF1nw5-19" value="development experience" style="text;html=1;strokeColor=none;fillColor=none;align=center;verticalAlign=middle;whiteSpace=wrap;rounded=0;labelBackgroundColor=none;fontSize=18;" vertex="1" parent="1">
          <mxGeometry x="-40" y="570" width="250" height="50" as="geometry" />
        </mxCell>
        <mxCell id="sUDlvrS8sk9wRTxF1nw5-20" value="difficulty, ambition" style="text;html=1;strokeColor=none;fillColor=none;align=center;verticalAlign=middle;whiteSpace=wrap;rounded=0;labelBackgroundColor=none;fontSize=18;" vertex="1" parent="1">
          <mxGeometry x="1030" y="570" width="250" height="50" as="geometry" />
        </mxCell>
        <mxCell id="sUDlvrS8sk9wRTxF1nw5-21" value="&lt;font style=&quot;font-size: 20px;&quot;&gt;Bad&lt;/font&gt;" style="text;html=1;strokeColor=none;fillColor=none;align=center;verticalAlign=middle;whiteSpace=wrap;rounded=0;labelBackgroundColor=none;fontSize=16;" vertex="1" parent="1">
          <mxGeometry x="-20" y="440" width="60" height="30" as="geometry" />
        </mxCell>
        <mxCell id="sUDlvrS8sk9wRTxF1nw5-22" value="Great" style="text;html=1;strokeColor=none;fillColor=none;align=center;verticalAlign=middle;whiteSpace=wrap;rounded=0;labelBackgroundColor=none;fontSize=20;" vertex="1" parent="1">
          <mxGeometry x="-20" y="80" width="60" height="30" as="geometry" />
        </mxCell>
        <mxCell id="sUDlvrS8sk9wRTxF1nw5-23" style="edgeStyle=orthogonalEdgeStyle;rounded=0;orthogonalLoop=1;jettySize=auto;html=1;exitX=0.5;exitY=1;exitDx=0;exitDy=0;fontSize=14;strokeWidth=3;" edge="1" parent="1" source="sUDlvrS8sk9wRTxF1nw5-21" target="sUDlvrS8sk9wRTxF1nw5-21">
          <mxGeometry relative="1" as="geometry" />
        </mxCell>
        <mxCell id="sUDlvrS8sk9wRTxF1nw5-24" value="&lt;font style=&quot;font-size: 20px;&quot;&gt;Great&lt;/font&gt;" style="text;html=1;strokeColor=none;fillColor=none;align=center;verticalAlign=middle;whiteSpace=wrap;rounded=0;labelBackgroundColor=none;fontSize=16;" vertex="1" parent="1">
          <mxGeometry x="-20" y="270" width="60" height="30" as="geometry" />
        </mxCell>
        <mxCell id="sUDlvrS8sk9wRTxF1nw5-25" value="not the hardest" style="text;html=1;strokeColor=none;fillColor=none;align=center;verticalAlign=middle;whiteSpace=wrap;rounded=0;labelBackgroundColor=none;fontSize=20;" vertex="1" parent="1">
          <mxGeometry x="1220" y="435" width="150" height="40" as="geometry" />
        </mxCell>
        <mxCell id="sUDlvrS8sk9wRTxF1nw5-26" value="very difficult, worth trying" style="text;html=1;strokeColor=none;fillColor=none;align=center;verticalAlign=middle;whiteSpace=wrap;rounded=0;labelBackgroundColor=none;fontSize=20;" vertex="1" parent="1">
          <mxGeometry x="1170" y="265" width="250" height="40" as="geometry" />
        </mxCell>
        <mxCell id="sUDlvrS8sk9wRTxF1nw5-27" value="Ambitious!!!" style="text;html=1;strokeColor=none;fillColor=none;align=center;verticalAlign=middle;whiteSpace=wrap;rounded=0;labelBackgroundColor=none;fontSize=20;" vertex="1" parent="1">
          <mxGeometry x="1240" y="80" width="90" height="30" as="geometry" />
        </mxCell>
      </root>
    </mxGraphModel>
  </diagram>
</mxfile>
